<svg fill="none" height="36" viewBox="0 0 36 36" width="36" xmlns="http://www.w3.org/2000/svg"><path clip-rule="evenodd" d="m11.8442 19.9688c1.0836 0 1.962-.8784 1.962-1.962 0-1.0835-.8784-1.9619-1.962-1.9619-1.0835 0-1.96188.8784-1.96188 1.9619 0 1.0836.87838 1.962 1.96188 1.962zm7.7842-1.962c0 1.0836-.8784 1.962-1.9619 1.962s-1.9619-.8784-1.9619-1.962c0-1.0835.8784-1.9619 1.9619-1.9619s1.9619.8784 1.9619 1.9619zm5.8223 0c0 1.0836-.8784 1.962-1.9619 1.962-1.0836 0-1.9619-.8784-1.9619-1.962 0-1.0835.8783-1.9619 1.9619-1.9619 1.0835 0 1.9619.8784 1.9619 1.9619z" fill="currentColor" fill-rule="evenodd"/><circle cx="17.6664" cy="18.0067" r="16.3944" stroke="currentColor" stroke-width="2"/></svg>